<?xml version="1.0" encoding="UTF-8"?>
<!DOCTYPE svg PUBLIC "-//W3C//DTD SVG 1.1//EN" "http://www.w3.org/Graphics/SVG/1.1/DTD/svg11.dtd">
<svg xmlns="http://www.w3.org/2000/svg" version="1.1" width="108px" height="108px" style="shape-rendering:geometricPrecision; text-rendering:geometricPrecision; image-rendering:optimizeQuality; fill-rule:evenodd; clip-rule:evenodd" xmlns:xlink="http://www.w3.org/1999/xlink">
<g><path style="opacity:1" fill="#287dfa" d="M 56.5,11.5 C 55.719,13.3223 54.5523,13.9889 53,13.5C 52.6667,14.8333 52.3333,16.1667 52,17.5C 51.6667,17.1667 51.3333,16.8333 51,16.5C 49.9252,18.0881 48.7585,19.7548 47.5,21.5C 42.5,21.5 37.5,21.5 32.5,21.5C 28.0388,21.7898 25.2055,24.1231 24,28.5C 23.5004,35.4921 23.3337,42.4921 23.5,49.5C 23.5,50.5 23.5,51.5 23.5,52.5C 22.2794,53.0283 21.1127,53.695 20,54.5C 19.0862,53.3463 18.2529,53.513 17.5,55C 20.0278,55.6689 20.0278,56.5022 17.5,57.5C 16.914,57.2907 16.414,56.9574 16,56.5C 15.6667,57.8333 15.3333,59.1667 15,60.5C 14.6174,59.944 14.1174,59.6107 13.5,59.5C 13.0334,44.7363 13.5334,30.0696 15,15.5C 16.214,13.9512 17.714,12.7845 19.5,12C 31.8288,11.5001 44.1622,11.3335 56.5,11.5 Z"/></g>
<g><path style="opacity:1" fill="#1b75fa" d="M 56.5,11.5 C 64.5069,11.3336 72.5069,11.5003 80.5,12C 84.1346,14.0962 86.1346,17.2629 86.5,21.5C 73.5,21.5 60.5,21.5 47.5,21.5C 48.7585,19.7548 49.9252,18.0881 51,16.5C 51.3333,16.8333 51.6667,17.1667 52,17.5C 52.3333,16.1667 52.6667,14.8333 53,13.5C 54.5523,13.9889 55.719,13.3223 56.5,11.5 Z"/></g>
<g><path style="opacity:1" fill="#3383fa" d="M 50.5,24.5 C 50.5,27.1667 50.5,29.8333 50.5,32.5C 53.6085,32.7359 56.6085,32.4025 59.5,31.5C 62.3854,31.1936 65.0521,31.5269 67.5,32.5C 64.8333,32.5 62.1667,32.5 59.5,32.5C 59.5,35.5 59.5,38.5 59.5,41.5C 56.5,41.5 53.5,41.5 50.5,41.5C 50.5,44.5 50.5,47.5 50.5,50.5C 52.8333,50.5 55.1667,50.5 57.5,50.5C 56.791,51.404 55.791,51.7373 54.5,51.5C 54.719,52.675 54.3857,53.675 53.5,54.5C 50.2839,58.2952 46.9506,61.2952 43.5,63.5C 44.0253,64.1924 44.6919,64.6924 45.5,65C 42.1603,64.8514 40.1603,66.3514 39.5,69.5C 37.8333,69.5 36.1667,69.5 34.5,69.5C 34.5,71.1667 34.5,72.8333 34.5,74.5C 30.8672,73.2367 28.3672,74.5701 27,78.5C 26.6667,78.1667 26.3333,77.8333 26,77.5C 24.7548,83.7061 25.5881,89.5395 28.5,95C 27.9056,95.4643 27.2389,95.631 26.5,95.5C 25.6851,94.5707 24.8518,93.5707 24,92.5C 23.5005,86.1754 23.3338,79.8421 23.5,73.5C 25.4668,65.9032 26.1335,57.9032 25.5,49.5C 25.0679,41.7208 25.5679,34.0542 27,26.5C 27.9025,25.2986 29.0692,24.4652 30.5,24C 37.3464,23.1794 44.013,23.346 50.5,24.5 Z"/></g>
<g><path style="opacity:1" fill="#f4f7fa" d="M 59.5,24.5 C 59.5,26.8333 59.5,29.1667 59.5,31.5C 56.6085,32.4025 53.6085,32.7359 50.5,32.5C 50.5,29.8333 50.5,27.1667 50.5,24.5C 53.5,23.1667 56.5,23.1667 59.5,24.5 Z"/></g>
<g><path style="opacity:1" fill="#3283fa" d="M 76.5,23.5 C 79.8499,23.335 83.1832,23.5017 86.5,24C 88.4641,25.451 89.7974,27.2843 90.5,29.5C 90.2703,49.1861 90.7703,68.8528 92,88.5C 92.3826,89.056 92.8826,89.3893 93.5,89.5C 93.3543,93.6359 91.3543,96.3026 87.5,97.5C 87.4196,94.7009 87.4196,91.8676 87.5,89C 88.1667,88.6667 88.8333,88.3333 89.5,88C 88.8333,86 88.1667,84 87.5,82C 88.067,79.4925 88.4003,76.9925 88.5,74.5C 86.3616,69.9489 85.1949,65.2823 85,60.5C 84.195,62.9011 83.3617,62.7344 82.5,60C 83.6168,56.9269 83.7835,53.7603 83,50.5C 81.6483,55.7021 80.4817,55.7021 79.5,50.5C 79.6082,49.5581 79.9415,48.7247 80.5,48C 78.7928,47.8047 77.1261,47.8047 75.5,48C 78.4463,45.8514 78.6129,44.0181 76,42.5C 75.6397,40.5789 74.8064,38.9122 73.5,37.5C 72.2011,38.09 71.3678,39.09 71,40.5C 69.3648,38.7566 69.1981,36.9233 70.5,35C 70.3613,33.699 69.6946,32.8656 68.5,32.5C 68.1667,32.5 67.8333,32.5 67.5,32.5C 65.0521,31.5269 62.3854,31.1936 59.5,31.5C 59.5,29.1667 59.5,26.8333 59.5,24.5C 64.9753,23.5111 70.642,23.1778 76.5,23.5 Z"/></g>
<g><path style="opacity:1" fill="#b2d0fa" d="M 32.5,21.5 C 37.5,21.5 42.5,21.5 47.5,21.5C 60.5,21.5 73.5,21.5 86.5,21.5C 89.4488,22.6141 91.6155,24.6141 93,27.5C 93.4992,32.1548 93.6658,36.8215 93.5,41.5C 92.8333,41.5 92.1667,41.5 91.5,41.5C 91.8168,37.2984 91.4834,33.2984 90.5,29.5C 89.7974,27.2843 88.4641,25.451 86.5,24C 83.1832,23.5017 79.8499,23.335 76.5,23.5C 61.8333,22.8333 47.1667,22.1667 32.5,21.5 Z"/></g>
<g><path style="opacity:1" fill="#97bffa" d="M 32.5,21.5 C 47.1667,22.1667 61.8333,22.8333 76.5,23.5C 70.642,23.1778 64.9753,23.5111 59.5,24.5C 56.5,23.1667 53.5,23.1667 50.5,24.5C 44.013,23.346 37.3464,23.1794 30.5,24C 29.0692,24.4652 27.9025,25.2986 27,26.5C 25.5679,34.0542 25.0679,41.7208 25.5,49.5C 24.8333,49.5 24.1667,49.5 23.5,49.5C 23.3337,42.4921 23.5004,35.4921 24,28.5C 25.2055,24.1231 28.0388,21.7898 32.5,21.5 Z"/></g>
<g><path style="opacity:1" fill="#eef2fa" d="M 67.5,32.5 C 67.8333,32.5 68.1667,32.5 68.5,32.5C 68.6641,35.1873 68.4974,37.854 68,40.5C 65.2809,41.4438 62.4475,41.7771 59.5,41.5C 59.5,38.5 59.5,35.5 59.5,32.5C 62.1667,32.5 64.8333,32.5 67.5,32.5 Z"/></g>
<g><path style="opacity:1" fill="#2d7efa" d="M 68.5,32.5 C 69.6946,32.8656 70.3613,33.699 70.5,35C 69.1981,36.9233 69.3648,38.7566 71,40.5C 71.3678,39.09 72.2011,38.09 73.5,37.5C 74.8064,38.9122 75.6397,40.5789 76,42.5C 78.6129,44.0181 78.4463,45.8514 75.5,48C 77.1261,47.8047 78.7928,47.8047 80.5,48C 79.9415,48.7247 79.6082,49.5581 79.5,50.5C 80.4817,55.7021 81.6483,55.7021 83,50.5C 83.7835,53.7603 83.6168,56.9269 82.5,60C 83.3617,62.7344 84.195,62.9011 85,60.5C 85.1949,65.2823 86.3616,69.9489 88.5,74.5C 88.4003,76.9925 88.067,79.4925 87.5,82C 88.1667,84 88.8333,86 89.5,88C 88.8333,88.3333 88.1667,88.6667 87.5,89C 87.4196,91.8676 87.4196,94.7009 87.5,97.5C 86.0813,98.4511 84.4147,98.7845 82.5,98.5C 81.7375,97.7321 80.7375,97.2321 79.5,97C 82.2451,96.9468 84.2451,95.7802 85.5,93.5C 84.7475,85.4024 83.7475,77.7357 82.5,70.5C 82.1583,69.6618 81.4916,69.3284 80.5,69.5C 80.5339,66.8015 79.8672,64.3015 78.5,62C 75.809,61.4905 73.309,60.6572 71,59.5C 69.1598,61.4904 67.9931,61.4904 67.5,59.5C 68.4025,56.6085 68.7359,53.6085 68.5,50.5C 65.5,50.5 62.5,50.5 59.5,50.5C 59.5,53.1667 59.5,55.8333 59.5,58.5C 58.5269,56.0521 58.1936,53.3854 58.5,50.5C 59.4025,47.6085 59.7359,44.6085 59.5,41.5C 62.4475,41.7771 65.2809,41.4438 68,40.5C 68.4974,37.854 68.6641,35.1873 68.5,32.5 Z"/></g>
<g><path style="opacity:1" fill="#eff3fa" d="M 59.5,41.5 C 59.7359,44.6085 59.4025,47.6085 58.5,50.5C 58.1667,50.5 57.8333,50.5 57.5,50.5C 55.1667,50.5 52.8333,50.5 50.5,50.5C 50.5,47.5 50.5,44.5 50.5,41.5C 53.5,41.5 56.5,41.5 59.5,41.5 Z"/></g>
<g><path style="opacity:1" fill="#2b7dfa" d="M 57.5,50.5 C 57.8333,50.5 58.1667,50.5 58.5,50.5C 58.1936,53.3854 58.5269,56.0521 59.5,58.5C 60.209,59.404 61.209,59.7373 62.5,59.5C 61.3548,61.7117 60.3548,64.045 59.5,66.5C 58.6043,65.4937 57.9377,65.4937 57.5,66.5C 58.1272,67.4168 58.4606,68.4168 58.5,69.5C 55.8333,69.5 53.1667,69.5 50.5,69.5C 50.5,71.8333 50.5,74.1667 50.5,76.5C 47.1108,80.295 44.6108,84.295 43,88.5C 42.1475,90.1247 41.1475,90.4581 40,89.5C 39.5078,90.549 39.6744,91.549 40.5,92.5C 40,93.5 39.5,94.5 39,95.5C 38.3457,94.3044 37.8457,94.3044 37.5,95.5C 40.7848,96.3236 44.1182,96.8236 47.5,97C 45.9419,97.21 44.6085,97.71 43.5,98.5C 39.1667,98.5 34.8333,98.5 30.5,98.5C 29.1667,97.5 27.8333,96.5 26.5,95.5C 27.2389,95.631 27.9056,95.4643 28.5,95C 25.5881,89.5395 24.7548,83.7061 26,77.5C 26.3333,77.8333 26.6667,78.1667 27,78.5C 28.3672,74.5701 30.8672,73.2367 34.5,74.5C 34.5,78.5 34.5,82.5 34.5,86.5C 35.8333,86.5 37.1667,86.5 38.5,86.5C 38.5,84.5 38.5,82.5 38.5,80.5C 41.1667,80.5 43.8333,80.5 46.5,80.5C 46.5,79.5 46.5,78.5 46.5,77.5C 43.8333,77.5 41.1667,77.5 38.5,77.5C 38.5,75.8333 38.5,74.1667 38.5,72.5C 41.5,72.5 44.5,72.5 47.5,72.5C 47.5,71.5 47.5,70.5 47.5,69.5C 44.8333,69.5 42.1667,69.5 39.5,69.5C 40.1603,66.3514 42.1603,64.8514 45.5,65C 44.6919,64.6924 44.0253,64.1924 43.5,63.5C 46.9506,61.2952 50.2839,58.2952 53.5,54.5C 54.3857,53.675 54.719,52.675 54.5,51.5C 55.791,51.7373 56.791,51.404 57.5,50.5 Z"/></g>
<g><path style="opacity:1" fill="#eaeffa" d="M 67.5,59.5 C 65.8333,59.5 64.1667,59.5 62.5,59.5C 61.209,59.7373 60.209,59.404 59.5,58.5C 59.5,55.8333 59.5,53.1667 59.5,50.5C 62.5,50.5 65.5,50.5 68.5,50.5C 68.7359,53.6085 68.4025,56.6085 67.5,59.5 Z"/></g>
<g><path style="opacity:1" fill="#277dfa" d="M 62.5,59.5 C 64.1667,59.5 65.8333,59.5 67.5,59.5C 67.9931,61.4904 69.1598,61.4904 71,59.5C 73.309,60.6572 75.809,61.4905 78.5,62C 79.8672,64.3015 80.5339,66.8015 80.5,69.5C 77.5454,72.1156 74.5454,74.7823 71.5,77.5C 71.5,74.8333 71.5,72.1667 71.5,69.5C 70.1667,69.5 68.8333,69.5 67.5,69.5C 67.1778,75.358 67.5111,81.0247 68.5,86.5C 69.5,86.5 70.5,86.5 71.5,86.5C 71.0301,83.6544 71.8634,81.3211 74,79.5C 75.4578,81.96 77.2911,84.1266 79.5,86C 80.8333,86.6667 82.1667,86.6667 83.5,86C 80.8084,83.4428 78.475,80.6095 76.5,77.5C 78.2812,74.9088 80.2812,72.5755 82.5,70.5C 83.7475,77.7357 84.7475,85.4024 85.5,93.5C 84.2451,95.7802 82.2451,96.9468 79.5,97C 80.7375,97.2321 81.7375,97.7321 82.5,98.5C 69.5,98.5 56.5,98.5 43.5,98.5C 44.6085,97.71 45.9419,97.21 47.5,97C 44.1182,96.8236 40.7848,96.3236 37.5,95.5C 37.8457,94.3044 38.3457,94.3044 39,95.5C 39.5,94.5 40,93.5 40.5,92.5C 39.6744,91.549 39.5078,90.549 40,89.5C 41.1475,90.4581 42.1475,90.1247 43,88.5C 44.6108,84.295 47.1108,80.295 50.5,76.5C 50.5,79.8333 50.5,83.1667 50.5,86.5C 51.5,86.5 52.5,86.5 53.5,86.5C 53.5,84.8333 53.5,83.1667 53.5,81.5C 57.5164,82.1001 61.0164,81.1001 64,78.5C 65.6578,73.3305 63.8245,70.3305 58.5,69.5C 58.4606,68.4168 58.1272,67.4168 57.5,66.5C 57.9377,65.4937 58.6043,65.4937 59.5,66.5C 60.3548,64.045 61.3548,61.7117 62.5,59.5 Z"/></g>
<g><path style="opacity:1" fill="#8ebbfa" d="M 91.5,41.5 C 92.1667,41.5 92.8333,41.5 93.5,41.5C 93.5,49.5 93.5,57.5 93.5,65.5C 92.8826,65.6107 92.3826,65.944 92,66.5C 91.5003,58.1733 91.3336,49.84 91.5,41.5 Z"/></g>
<g><path style="opacity:1" fill="#1a74fa" d="M 23.5,52.5 C 23.5,59.5 23.5,66.5 23.5,73.5C 23.3338,79.8421 23.5005,86.1754 24,92.5C 24.8518,93.5707 25.6851,94.5707 26.5,95.5C 27.8333,96.5 29.1667,97.5 30.5,98.5C 26.8183,98.6653 23.1516,98.4986 19.5,98C 17,96.8333 15.1667,95 14,92.5C 13.5002,81.505 13.3335,70.505 13.5,59.5C 14.1174,59.6107 14.6174,59.944 15,60.5C 15.3333,59.1667 15.6667,57.8333 16,56.5C 16.414,56.9574 16.914,57.2907 17.5,57.5C 20.0278,56.5022 20.0278,55.6689 17.5,55C 18.2529,53.513 19.0862,53.3463 20,54.5C 21.1127,53.695 22.2794,53.0283 23.5,52.5 Z"/></g>
<g><path style="opacity:1" fill="#65a2fa" d="M 23.5,49.5 C 24.1667,49.5 24.8333,49.5 25.5,49.5C 26.1335,57.9032 25.4668,65.9032 23.5,73.5C 23.5,66.5 23.5,59.5 23.5,52.5C 23.5,51.5 23.5,50.5 23.5,49.5 Z"/></g>
<g><path style="opacity:1" fill="#dce7fa" d="M 39.5,69.5 C 42.1667,69.5 44.8333,69.5 47.5,69.5C 47.5,70.5 47.5,71.5 47.5,72.5C 44.5,72.5 41.5,72.5 38.5,72.5C 38.5,74.1667 38.5,75.8333 38.5,77.5C 41.1667,77.5 43.8333,77.5 46.5,77.5C 46.5,78.5 46.5,79.5 46.5,80.5C 43.8333,80.5 41.1667,80.5 38.5,80.5C 38.5,82.5 38.5,84.5 38.5,86.5C 37.1667,86.5 35.8333,86.5 34.5,86.5C 34.5,82.5 34.5,78.5 34.5,74.5C 34.5,72.8333 34.5,71.1667 34.5,69.5C 36.1667,69.5 37.8333,69.5 39.5,69.5 Z"/></g>
<g><path style="opacity:1" fill="#ecf1fa" d="M 58.5,69.5 C 63.8245,70.3305 65.6578,73.3305 64,78.5C 61.0164,81.1001 57.5164,82.1001 53.5,81.5C 53.5,83.1667 53.5,84.8333 53.5,86.5C 52.5,86.5 51.5,86.5 50.5,86.5C 50.5,83.1667 50.5,79.8333 50.5,76.5C 50.5,74.1667 50.5,71.8333 50.5,69.5C 53.1667,69.5 55.8333,69.5 58.5,69.5 Z"/></g>
<g><path style="opacity:1" fill="#98c0fa" d="M 71.5,77.5 C 70.7313,75.9142 70.0647,73.5808 69.5,70.5C 68.5052,75.7921 68.1718,81.1254 68.5,86.5C 67.5111,81.0247 67.1778,75.358 67.5,69.5C 68.8333,69.5 70.1667,69.5 71.5,69.5C 71.5,72.1667 71.5,74.8333 71.5,77.5 Z"/></g>
<g><path style="opacity:1" fill="#ebf0fa" d="M 80.5,69.5 C 81.4916,69.3284 82.1583,69.6618 82.5,70.5C 80.2812,72.5755 78.2812,74.9088 76.5,77.5C 78.475,80.6095 80.8084,83.4428 83.5,86C 82.1667,86.6667 80.8333,86.6667 79.5,86C 77.2911,84.1266 75.4578,81.96 74,79.5C 71.8634,81.3211 71.0301,83.6544 71.5,86.5C 70.5,86.5 69.5,86.5 68.5,86.5C 68.1718,81.1254 68.5052,75.7921 69.5,70.5C 70.0647,73.5808 70.7313,75.9142 71.5,77.5C 74.5454,74.7823 77.5454,72.1156 80.5,69.5 Z"/></g>
<g><path style="opacity:1" fill="#3381fa" d="M 53.5,72.5 C 55.8568,72.3367 58.1902,72.5034 60.5,73C 61.8333,74.6667 61.8333,76.3333 60.5,78C 58.1902,78.4966 55.8568,78.6633 53.5,78.5C 53.5,76.5 53.5,74.5 53.5,72.5 Z"/></g>
<g><path style="opacity:1" fill="#609efa" d="M 90.5,29.5 C 91.4834,33.2984 91.8168,37.2984 91.5,41.5C 91.3336,49.84 91.5003,58.1733 92,66.5C 92.3826,65.944 92.8826,65.6107 93.5,65.5C 93.5,73.5 93.5,81.5 93.5,89.5C 92.8826,89.3893 92.3826,89.056 92,88.5C 90.7703,68.8528 90.2703,49.1861 90.5,29.5 Z"/></g>
</svg>
